<svg id="Layer_1" data-name="Layer 1" xmlns="http://www.w3.org/2000/svg" viewBox="0 0 237 61.66"><defs><style>.cls-1{fill:#e5e4e2;opacity:0.4;}.cls-2{fill:#fff;}</style></defs><title>cica_logo</title><path class="cls-1" d="M175.91,11C161,5.19,141.1,2.05,120,2c-43.7,0-79.23,13.89-79.22,30.89S76.24,63.7,119.86,63.7H120c21.12,0,41-3.21,55.92-9s23.31-13.6,23.3-21.89S191,16.76,175.91,11Zm4.78,21.79a16.73,16.73,0,0,0-4.48-10.82H182c3.4,3.33,5.34,7,5.46,10.82Zm-30,24.82H145.8a56.06,56.06,0,0,0,9.56-4.32c.8-.46,1.55-.94,2.29-1.42h7.69A72.73,72.73,0,0,1,150.67,57.56Zm15-5.75h5.07a87.58,87.58,0,0,1-16.45,5.75h-3a75.79,75.79,0,0,0,11.58-4.32Q164.37,52.55,165.72,51.81Zm-113.33-19c.11-3.78,2-7.44,5.43-10.83h6a16.73,16.73,0,0,0-4.47,10.83ZM64,22h9.73A18.7,18.7,0,0,0,70,32.83H59.47A16.63,16.63,0,0,1,64,22Zm22.24,0a23.61,23.61,0,0,0-2.69,10.83H70.15A18.59,18.59,0,0,1,73.9,22ZM74,21.85a32.43,32.43,0,0,1,8.41-7.77h9.95a28.61,28.61,0,0,0-6.07,7.77ZM100.46,33a41,41,0,0,0,1.45,10.82H86.41A23.5,23.5,0,0,1,83.69,33Zm53.13-11a23.46,23.46,0,0,1,2.73,10.82H139.54A40.72,40.72,0,0,0,138.08,22ZM138,21.8A33.39,33.39,0,0,0,134.77,14h12.6a28.54,28.54,0,0,1,6.14,7.76Zm18.28,11.12a23.5,23.5,0,0,1-2.7,10.83H138.11a41,41,0,0,0,1.43-10.83ZM137.95,43.76H120.09V33l19.31,0A40.85,40.85,0,0,1,137.95,43.76Zm-18,0H102.07A40.85,40.85,0,0,1,100.62,33l19.3,0ZM83.53,33a23.64,23.64,0,0,0,2.7,10.82H73.92A18.61,18.61,0,0,1,70.16,33Zm2.78,11a28.58,28.58,0,0,0,6.09,7.76H82.46A32.38,32.38,0,0,1,74,44Zm.18,0H102a33.07,33.07,0,0,0,3.27,7.76H92.63A28.5,28.5,0,0,1,86.49,44Zm15.63,0h17.82V51.7H105.4A32.85,32.85,0,0,1,102.12,43.95Zm18,0h17.82a32.84,32.84,0,0,1-3.27,7.77H120.1Zm18,0h15.46a28.5,28.5,0,0,1-6.13,7.77H134.82A33.07,33.07,0,0,0,138.07,43.92Zm15.64,0H166a32.17,32.17,0,0,1-8.42,7.77h-10A28.57,28.57,0,0,0,153.71,43.9Zm.08-.16a23.64,23.64,0,0,0,2.68-10.83h13.38a18.64,18.64,0,0,1-3.71,10.83Zm2.68-11a23.61,23.61,0,0,0-2.71-10.82h12.34a18.62,18.62,0,0,1,3.74,10.82Zm-2.79-11A28.61,28.61,0,0,0,147.6,14h10A32.19,32.19,0,0,1,166,21.78ZM157.86,14h7.76a37.44,37.44,0,0,1,10.21,7.76h-9.64A32.08,32.08,0,0,0,157.86,14Zm-.23-.16c-.74-.48-1.5-1-2.29-1.42a56.15,56.15,0,0,0-9.54-4.3h4.88a72.69,72.69,0,0,1,14.66,5.72Zm-2.37-1.29c.73.42,1.42.85,2.09,1.29h-9.91c-.54-.48-1.09-1-1.67-1.42a36.84,36.84,0,0,0-7-4.31h6.5A56.32,56.32,0,0,1,155.25,12.58Zm-9.58,0c.53.42,1,.85,1.53,1.29H134.68A24.13,24.13,0,0,0,130,8.15h8.39A36.77,36.77,0,0,1,145.67,12.58Zm-11.17,1.3H120.06V8.16h9.74A23.77,23.77,0,0,1,134.5,13.88ZM120.06,14h14.53a33.16,33.16,0,0,1,3.28,7.76h-17.8ZM137.91,22a40.58,40.58,0,0,1,1.47,10.82l-19.31,0V22Zm-18,10.84-19.3,0A40.59,40.59,0,0,1,102.07,22h17.84Zm-19.46,0H83.69A23.46,23.46,0,0,1,86.4,22h15.51A40.73,40.73,0,0,0,100.46,32.81Zm-14-11a28.54,28.54,0,0,1,6.12-7.77h12.6A33.39,33.39,0,0,0,102,21.83Zm6.29-7.93c.49-.44,1-.87,1.53-1.29a36.78,36.78,0,0,1,7.24-4.45h8.39a24.14,24.14,0,0,0-4.63,5.74ZM94.2,12.5c-.58.46-1.13.93-1.66,1.42H82.66A54.1,54.1,0,0,1,94.73,8.18h6.44A36.84,36.84,0,0,0,94.2,12.5ZM82.39,13.92H74.62c.82-.44,1.66-.87,2.54-1.29A76.4,76.4,0,0,1,89.24,8.18h5A53.68,53.68,0,0,0,82.39,13.92Zm-.24.16a32.37,32.37,0,0,0-8.32,7.77H64.12a37.17,37.17,0,0,1,10.21-7.77ZM70,33a18.76,18.76,0,0,0,3.69,10.82H64A16.62,16.62,0,0,1,59.47,33Zm3.8,11a32.07,32.07,0,0,0,8.35,7.76H74.36A37.2,37.2,0,0,1,64.13,44Zm8.58,7.91c.74.48,1.49,1,2.29,1.42a56,56,0,0,0,9.57,4.3H89.29a76.41,76.41,0,0,1-12.1-4.44c-.88-.42-1.72-.84-2.54-1.28Zm.31,0h9.88c.54.48,1.09,1,1.67,1.41a36.81,36.81,0,0,0,7,4.31H94.78A54.13,54.13,0,0,1,82.69,51.88Zm11.64,1.28c-.53-.42-1-.85-1.53-1.29h12.51c.28.48.57.94.88,1.4a23.14,23.14,0,0,0,3.75,4.33h-8.35A36.71,36.71,0,0,1,94.33,53.16Zm12,0c-.29-.42-.56-.86-.83-1.31h14.45v5.73h-9.76A22.9,22.9,0,0,1,106.32,53.17Zm13.77-1.32h14.45c-.27.45-.54.89-.83,1.31a22.9,22.9,0,0,1-3.85,4.43H120.1Zm13.75,1.39c.31-.45.6-.92.88-1.4h12.51c-.49.44-1,.87-1.53,1.29a36.71,36.71,0,0,1-7.25,4.45H130.1A23.14,23.14,0,0,0,133.85,53.24Zm12,0c.58-.46,1.13-.93,1.66-1.42h9.91c-.67.44-1.36.87-2.09,1.29a56.2,56.2,0,0,1-9.95,4.46h-6.51A36.8,36.8,0,0,0,145.8,53.25Zm12.09-1.58a32.07,32.07,0,0,0,8.34-7.77h9.63a37.44,37.44,0,0,1-10.2,7.77Zm8.44-7.93A18.76,18.76,0,0,0,170,32.91h10.53c0,3.83-1.64,7.49-4.55,10.83Zm3.68-11a18.74,18.74,0,0,0-3.71-10.82H176c2.91,3.34,4.54,7,4.57,10.82Zm11.86-11h-5.79A36.85,36.85,0,0,0,166,14h3.92A43.73,43.73,0,0,1,181.86,21.76Zm-12.31-7.91h-3.86q-1.35-.73-2.81-1.42a76,76,0,0,0-11.58-4.3h.77A91.77,91.77,0,0,1,169.55,13.85ZM151.37,8h-.63c-.74-.21-1.49-.41-2.25-.6Q150,7.66,151.37,8ZM145,6.74q2.62.56,5.1,1.24h-4.78a71.18,71.18,0,0,0-9.39-2.46C139,5.84,142.08,6.25,145,6.74Zm-10.93-1.4A72.39,72.39,0,0,1,144.82,8h-6.36a41.72,41.72,0,0,0-9.07-3Q131.76,5.14,134.08,5.34Zm-5.84-.41A41.91,41.91,0,0,1,138.08,8h-8.22a16.53,16.53,0,0,0-5.45-3.21Q126.33,4.84,128.24,4.93Zm-4.36-.16A16.1,16.1,0,0,1,129.62,8h-9.56V4.72Q122,4.72,123.87,4.77Zm-4,17h-17.8a33.16,33.16,0,0,1,3.27-7.77h14.53Zm0-7.92H105.47a23.77,23.77,0,0,1,4.69-5.74h9.74Zm0-9.17V8h-9.56a16.1,16.1,0,0,1,5.74-3.23C117.35,4.75,118.62,4.73,119.9,4.72Zm-4.34.07A16.53,16.53,0,0,0,110.11,8h-8.22a41.92,41.92,0,0,1,9.85-3.07Q113.63,4.85,115.56,4.79ZM110.61,5a41.73,41.73,0,0,0-9.11,3H95.2a73.1,73.1,0,0,1,11-2.7Q108.4,5.13,110.61,5Zm-6.3.5A71.86,71.86,0,0,0,94.72,8H89.82q2.66-.73,5.46-1.32Q99.68,6,104.32,5.5ZM92.09,7.27q-1.45.36-2.87.75h-.79C89.63,7.76,90.86,7.51,92.09,7.27Zm-20,5.89a94.69,94.69,0,0,1,15.69-5h.92A76,76,0,0,0,77.09,12.5q-1.46.69-2.81,1.43h-4C70.88,13.67,71.46,13.41,72.05,13.16Zm1.94.92a36.85,36.85,0,0,0-10.08,7.77H58a43.71,43.71,0,0,1,12-7.77ZM52.38,33.22c0-.07,0-.15,0-.22h6.93a16.72,16.72,0,0,0,4.48,10.82h-6.5c-.34-.35-.67-.71-1-1.06A14.74,14.74,0,0,1,52.38,33.22ZM57.44,44h6.48A36.89,36.89,0,0,0,74,51.73H68.89A41.48,41.48,0,0,1,57.44,44Zm11.77,7.91h5.11q1.35.73,2.81,1.42a75.8,75.8,0,0,0,11.59,4.3h-3.1a92.21,92.21,0,0,1-13.56-4.45Q70.58,52.55,69.21,51.89Zm17,5.88h3A106.34,106.34,0,0,0,106.21,61,133.66,133.66,0,0,1,86.24,57.77Zm3.62,0H94.7A75.29,75.29,0,0,0,111,61.24,110,110,0,0,1,89.86,57.77Zm5.39,0h6.31a42.64,42.64,0,0,0,12.83,3.61A77.18,77.18,0,0,1,95.25,57.76Zm6.68,0h8.2a15.69,15.69,0,0,0,7.48,3.73A43.29,43.29,0,0,1,101.93,57.76Zm8.44,0h9.58v3.8A14.82,14.82,0,0,1,110.37,57.75Zm9.73,0h9.58a14.82,14.82,0,0,1-9.57,3.81Zm9.82,0h8.2a43.29,43.29,0,0,1-15.67,3.75A15.69,15.69,0,0,0,129.92,57.73Zm8.57,0h6.37a77.07,77.07,0,0,1-19.2,3.64A42.65,42.65,0,0,0,138.49,57.73Zm6.86,0h4.76a110.23,110.23,0,0,1-21,3.5A75.22,75.22,0,0,0,145.35,57.72Zm5.42,0h2.94a133.92,133.92,0,0,1-19.66,3.2A106.14,106.14,0,0,0,150.76,57.72Zm26.15-9.32a53.14,53.14,0,0,1-5.81,3.26H166a36.89,36.89,0,0,0,10.09-7.77h6.37A33.42,33.42,0,0,1,176.91,48.4Zm5.71-4.67h-6.39a16.72,16.72,0,0,0,4.46-10.83h6.8c0,.07,0,.15,0,.22C187.5,36.86,185.76,40.44,182.62,43.72Z" transform="translate(-1.5 -2.04)"/><path class="cls-2" d="M30.5,22.89V31.8Q26.7,26.09,19,26.09t-7.67,6.67q0,3.34,2.07,4.83t6.7,1.49a14.62,14.62,0,0,0,7.28-1.64c1.94-1.09,2.86-2.44,2.77-4a1.58,1.58,0,0,0,0-.26,2.62,2.62,0,0,1,1.26,2.32q0,3.45-3.64,5.57a18.88,18.88,0,0,1-9.58,2.12A22.55,22.55,0,0,1,6.43,40.24q-4.94-2.94-4.93-7t5-7.4a20.07,20.07,0,0,1,11.27-3.27A19.21,19.21,0,0,1,27.4,25Z" transform="translate(-1.5 -2.04)"/><path class="cls-2" d="M104.91,23.15l-4,3.23,6.9,11.56,6.23,4.64H93.31L99,38.52l-.75-1.37H88.79l-.74,1.37,5,4.07H77.63l4.86-4.64,6.79-11.56-3.87-3.23Zm-11.6,5.37L90.4,33.88h6Z" transform="translate(-1.5 -2.04)"/><polygon class="cls-2" points="153.31 30.13 153.31 40.55 121.72 40.55 127.66 36.03 127.66 25.66 121.72 21.11 141.97 21.11 136.04 25.66 136.04 36.68 146.03 36.68 153.31 30.13"/><polygon class="cls-2" points="230.69 24.45 237 29.54 237 21.11 175.54 21.11 181.25 25.5 181.25 36 175.54 40.55 195.03 40.55 189.28 36 189.28 32.66 195.07 32.66 199.58 35.53 199.58 26.17 195.07 28.48 189.28 28.48 189.28 24.52 199.96 24.52 206.06 30.41 206.06 21.24 211.62 25.5 211.62 36 205.89 40.55 237 40.55 237 31.11 230.69 36.58 219.68 36.58 219.68 32.37 225.73 32.37 230.02 34.96 230.02 26.38 225.73 28.61 219.68 28.61 219.68 24.45 230.69 24.45"/><path class="cls-2" d="M79,22.89V31.8q-3.79-5.7-11.45-5.71T59.9,32.76q0,3.34,2.07,4.83t6.7,1.49A14.61,14.61,0,0,0,76,37.43q2.91-1.64,2.76-4a1.34,1.34,0,0,0,0-.26,2.62,2.62,0,0,1,1.26,2.32q0,3.45-3.64,5.58a18.94,18.94,0,0,1-9.58,2.12A22.58,22.58,0,0,1,55,40.23Q50,37.29,50,33.23t5-7.4a20.07,20.07,0,0,1,11.27-3.26A19.2,19.2,0,0,1,75.92,25Z" transform="translate(-1.5 -2.04)"/><polygon class="cls-2" points="153.44 21.11 174.71 21.11 168.39 25.64 168.39 36.01 174.71 40.55 153.44 40.55 159.77 36.01 159.77 25.64 153.44 21.11"/><polygon class="cls-2" points="30.45 21.11 51.73 21.11 45.41 25.64 45.41 36.01 51.73 40.55 30.45 40.55 36.79 36.01 36.79 25.64 30.45 21.11"/></svg>